<svg width="800" height="800" viewBox="0 0 800 800" fill="none" xmlns="http://www.w3.org/2000/svg">
  <defs>
    <!-- Sky Background Gradient -->
    <linearGradient id="sky-grad" x1="0%" y1="0%" x2="0%" y2="100%">
      <stop offset="0%" stop-color="#D8E2EC" />
      <stop offset="50%" stop-color="#ECEFF4" />
      <stop offset="100%" stop-color="#F3F4F6" />
    </linearGradient>

    <!-- Asphalt Road Gradient -->
    <linearGradient id="road-grad" x1="0%" y1="0%" x2="0%" y2="100%">
      <stop offset="0%" stop-color="#707E94" />
      <stop offset="20%" stop-color="#475569" />
      <stop offset="100%" stop-color="#1E293B" />
    </linearGradient>

    <!-- Glass facades in background -->
    <linearGradient id="building-glass" x1="0%" y1="0%" x2="100%" y2="100%">
      <stop offset="0%" stop-color="#1E293B" />
      <stop offset="50%" stop-color="#0F172A" />
      <stop offset="100%" stop-color="#334155" />
    </linearGradient>

    <!-- Metallic pickup paint -->
    <linearGradient id="pickup-metallic" x1="0%" y1="0%" x2="100%" y2="40%">
      <stop offset="0%" stop-color="#94A3B8" />
      <stop offset="40%" stop-color="#64748B" />
      <stop offset="100%" stop-color="#334155" />
    </linearGradient>

    <radialGradient id="tire-grad" cx="50%" cy="50%" r="50%">
      <stop offset="60%" stop-color="#0F172A" />
      <stop offset="85%" stop-color="#1E293B" />
      <stop offset="100%" stop-color="#475569" />
    </radialGradient>

    <filter id="car-shadow" x="-5%" y="-5%" width="110%" height="110%">
      <feGaussianBlur stdDeviation="15" result="blur" />
      <feColorMatrix type="matrix" values="0 0 0 0 0   0 0 0 0 0   0 0 0 0 0  0 0 0 0.25 0" />
    </filter>
  </defs>

  <!-- Sky background -->
  <rect width="800" height="800" fill="url(#sky-grad)" />

  <!-- MODERN OFFICE BUILDING DEPICTED IN THE USER PHOTO -->
  <g id="building-facade" opacity="0.85">
    <!-- Main concrete block -->
    <rect x="0" y="0" width="800" height="420" fill="#E2E8F0" />
    <rect x="0" y="0" width="800" height="420" fill="#CBD5E1" opacity="0.3" />

    <!-- Grid of golden-brown geometric window frames -->
    <!-- Columns -->
    <g stroke="#94A3B8" stroke-width="8">
      <line x1="80" y1="0" x2="80" y2="420" />
      <line x1="200" y1="0" x2="200" y2="420" />
      <line x1="320" y1="0" x2="320" y2="420" />
      <line x1="440" y1="0" x2="440" y2="420" />
      <line x1="560" y1="0" x2="560" y2="420" />
      <line x1="680" y1="0" x2="680" y2="420" />
    </g>
    <!-- Rows -->
    <g stroke="#94A3B8" stroke-width="6">
      <line x1="0" y1="100" x2="800" y2="100" />
      <line x1="0" y1="220" x2="800" y2="220" />
      <line x1="0" y1="340" x2="800" y2="340" />
    </g>

    <!-- Glass Pane fills with subtle office rack/goods detailing inside -->
    <g fill="url(#building-glass)" opacity="0.8">
      <rect x="84" y="4" width="112" height="92" />
      <rect x="204" y="4" width="112" height="92" />
      <rect x="324" y="4" width="112" height="92" />
      <rect x="444" y="4" width="112" height="92" />
      <rect x="564" y="4" width="112" height="92" />

      <rect x="84" y="104" width="112" height="112" />
      <rect x="204" y="104" width="112" height="112" />
      <rect x="324" y="104" width="112" height="112" />
      <rect x="444" y="104" width="112" height="112" />
      <rect x="564" y="104" width="112" height="112" />

      <rect x="84" y="224" width="112" height="112" />
      <rect x="204" y="224" width="112" height="112" />
      <rect x="324" y="224" width="112" height="112" />
      <rect x="444" y="224" width="112" height="112" />
      <rect x="564" y="224" width="112" height="112" />
    </g>

    <!-- Bronze metallic grid overlays -->
    <g stroke="#C2410C" stroke-width="2" opacity="0.2">
      <line x1="0" y1="0" x2="800" y2="0" stroke-width="12" />
      <line x1="0" y1="420" x2="800" y2="420" stroke-width="12" />
    </g>
  </g>

  <!-- Asphalt Ground / Parking Slots -->
  <rect x="0" y="420" width="800" height="380" fill="url(#road-grad)" />
  <path d="M 0 420 L 800 500" stroke="#475569" stroke-width="4" opacity="0.4" />
  <path d="M -50 800 L 850 520" stroke="#F1F5F9" stroke-width="3" stroke-dasharray="10 20" opacity="0.25" />

  <!-- Shared ambient shadows below cars -->
  <ellipse cx="250" cy="560" rx="200" ry="25" fill="#020617" filter="url(#car-shadow)" opacity="0.8" />
  <ellipse cx="580" cy="710" rx="210" ry="30" fill="#020617" filter="url(#car-shadow)" opacity="0.9" />

  <!-- ======================================================== -->
  <!-- CAR 1: WHITE SERVICE VAN (BACK/LEFT VEHICLE) -->
  <!-- ======================================================== -->
  <g id="white-delivery-van">
    <!-- Van Body Geometry -->
    <path d="M 80 340 
             C 80 310, 110 230, 180 220 
             L 420 220 
             C 440 220, 450 240, 450 260 
             L 450 510 
             C 450 520, 440 530, 420 530 
             L 100 530 
             C 80 530, 80 500, 80 480 
             Z" fill="#FFFFFF" stroke="#E2E8F0" stroke-width="2" />
             
    <!-- Rear bumpers & trim -->
    <path d="M 80 430 L 120 435 L 120 450 L 80 450" fill="#1E293B" />
    <rect x="420" y="490" width="30" height="40" fill="#0F172A" rx="3" />
    <circle cx="150" cy="525" r="32" fill="url(#tire-grad)" />
    <circle cx="150" cy="525" r="16" fill="#64748B" />
    <circle cx="380" cy="525" r="32" fill="url(#tire-grad)" />
    <circle cx="380" cy="525" r="16" fill="#64748B" />

    <!-- Windshield & Side Windows -->
    <path d="M 120 250 C 130 235, 150 230, 175 230 L 195 230 L 195 290 L 122 290 Z" fill="#334155" />
    <rect x="205" y="230" width="75" height="60" fill="#1E293B" rx="3" />
    <rect x="290" y="230" width="85" height="60" fill="#1E293B" rx="3" />

    <!-- Wheel arches and door splits -->
    <path d="M 195 220 L 195 530 M 285 220 L 285 530 M 385 220 L 385 530" stroke="#CBD5E1" stroke-width="1.5" />

    <!-- ========================================== -->
    <!-- VAN WRAP BUSINESS BRANDING ("HAGEX") -->
    <!-- ========================================== -->
    <g transform="translate(230, 310)">
      <!-- Giant Sky-blue italic letters matching photo texture -->
      <text x="0" y="40" 
            fill="#3B82F6" 
            font-family="'Inter', -apple-system, sans-serif" 
            font-weight="950" 
            font-size="44" 
            font-style="italic" 
            letter-spacing="0.5">
        HAGEX
      </text>
      <!-- "HAUSHALTSGERÄTE GmbH" -->
      <text x="3" y="62" 
            fill="#1E293B" 
            font-family="'Inter', sans-serif" 
            font-weight="900" 
            font-size="11" 
            letter-spacing="1">
        HAUSHALTSGERÄTE GmbH
      </text>
      <!-- Small details mimicking phone & services in photo -->
      <text x="3" y="78" fill="#64748B" font-family="sans-serif" font-size="7.5" font-weight="bold">
        • SERVICE • REPARATUREN • VERKAUF
      </text>
      <text x="3" y="90" fill="#64748B" font-family="sans-serif" font-size="7.5" font-weight="bold">
        📞 +41 79 554 50 50 | hagexservice.ch
      </text>
    </g>
  </g>


  <!-- ======================================================== -->
  <!-- CAR 2: GRAY FORD RANGER PICKUP TRUCK (FOREGROUND/RIGHT) -->
  <!-- ======================================================== -->
  <g id="gray-ford-pickup" transform="translate(180, 100)">
    <!-- Cabin and bed chassis -->
    <path d="M 120 460 
             L 180 340 
             C 195 320, 230 315, 340 315 
             L 480 315 
             L 590 345 
             L 600 480 
             L 600 520 
             C 600 535, 590 540, 560 540 
             L 125 540 
             C 105 540, 110 510, 110 490 
             Z" fill="url(#pickup-metallic)" stroke="#475569" stroke-width="1.5" />

    <!-- Premium dark alloy wheels & tires -->
    <circle cx="210" cy="535" r="46" fill="url(#tire-grad)" filter="drop-shadow(0 4px 6px rgba(0,0,0,0.4))" />
    <circle cx="210" cy="535" r="28" fill="#1E293B" stroke="#64748B" stroke-width="2" />
    <path d="M 210 507 L 210 563 M 182 535 L 238 535 M 190 515 L 230 555 M 190 555 L 230 515" stroke="#94A3B8" stroke-width="3.5" />
    <circle cx="210" cy="535" r="6" fill="#E2E8F0" />

    <circle cx="490" cy="535" r="46" fill="url(#tire-grad)" filter="drop-shadow(0 4px 6px rgba(0,0,0,0.4))" />
    <circle cx="490" cy="535" r="28" fill="#1E293B" stroke="#64748B" stroke-width="2" />
    <path d="M 490 507 L 490 563 M 462 535 L 518 535 M 470 515 L 510 555 M 470 555 L 510 515" stroke="#94A3B8" stroke-width="3.5" />
    <circle cx="490" cy="535" r="6" fill="#E2E8F0" />

    <!-- Dark tinted pickup windows -->
    <path d="M 190 410 L 215 335 L 320 335 L 320 410 Z" fill="#0F172A" />
    <path d="M 330 335 L 435 335 L 450 410 L 330 410 Z" fill="#0F172A" stroke="#334155" stroke-width="1" />

    <!-- Door lines and rugged mirrors -->
    <path d="M 325 315 L 325 540" stroke="#334155" stroke-width="2" />
    <rect x="155" y="375" width="25" height="15" fill="#0F172A" rx="4" />

    <!-- Front headlights & Grille -->
    <path d="M 110 430 Q 120 450, 130 470 L 110 475 Z" fill="#E2E8F0" filter="drop-shadow(0 0 8px rgba(255,255,255,0.7))" />
    <rect x="110" y="400" width="10" height="30" fill="#0F172A" rx="2" />

    <!-- Pickup Bed Cover Trim -->
    <path d="M 465 345 L 590 355 L 595 440 L 465 435 Z" fill="#1E293B" opacity="0.4" />
    <rect x="530" y="350" width="60" height="6" fill="#0F172A" />

    <!-- ========================================== -->
    <!-- PICKUP WRAP BUSINESS BRANDING ("HAGEX") -->
    <!-- ========================================== -->
    <!-- Bright clean blue-sky contrasted look -->
    <g transform="translate(235, 420)">
      <!-- Giant high-contrast Sky Blue italic wrapping -->
      <text x="0" y="40" 
            fill="#3B82F6" 
            font-family="'Inter', -apple-system, sans-serif" 
            font-weight="950" 
            font-size="42" 
            font-style="italic" 
            letter-spacing="1.2">
        HAGEX
      </text>
      <!-- "HAUSHALTSGERÄTE" below -->
      <text x="4" y="62" 
            fill="#F8FAFC" 
            font-family="'Inter', sans-serif" 
            font-weight="900" 
            font-size="11" 
            letter-spacing="2">
        HAUSHALTSGERÄTE
      </text>
      <text x="4" y="75" fill="#94A3B8" font-family="sans-serif" font-size="7" font-weight="bold" letter-spacing="0.5">
        SERVICE • REPARATUREN • VERKAUF
      </text>
    </g>
  </g>
</svg>
